<svg xmlns="http://www.w3.org/2000/svg" viewBox="0 0 1200 800"><defs><linearGradient id="b" x2="1" y2="1"><stop stop-color="#091629"/><stop offset="1" stop-color="#17375b"/></linearGradient></defs><path fill="url(#b)" d="M0 0h1200v800H0z"/><circle cx="1020" cy="130" r="220" fill="#40d2cf" opacity=".16"/><circle cx="150" cy="700" r="250" fill="#347bf0" opacity=".12"/><rect x="260" y="185" width="680" height="430" rx="60" fill="#10213b" stroke="#40d2cf" stroke-opacity=".5" stroke-width="6"/><rect x="315" y="240" width="570" height="320" rx="38" fill="#173c61"/><path d="m345 270 255 205 255-205M345 525l175-140m160 0 175 140" stroke="#f8fbff" stroke-width="32" stroke-linecap="round" stroke-linejoin="round"/><circle cx="600" cy="410" r="48" fill="#0e2946"/><path d="m600 380 10 19 21 3-16 15 4 22-19-11-19 11 4-22-16-15 21-3 10-19Z" fill="#8df0dc"/></svg>